<svg width="290" height="48" viewBox="0 0 290 48" fill="none" xmlns="http://www.w3.org/2000/svg">
<path d="M29.9931 39L21.6692 9.90909H28.388L33.2033 30.1222H33.4448L38.7573 9.90909H44.5102L49.8085 30.1648H50.0641L54.8795 9.90909H61.5982L53.2744 39H47.28L41.7403 19.9801H41.513L35.9874 39H29.9931ZM72.2907 39.4261C70.0843 39.4261 68.1761 38.9574 66.5663 38.0199C64.9659 37.0729 63.7301 35.7566 62.8589 34.071C61.9877 32.3759 61.5521 30.411 61.5521 28.1761C61.5521 25.9223 61.9877 23.9527 62.8589 22.267C63.7301 20.572 64.9659 19.2557 66.5663 18.3182C68.1761 17.3712 70.0843 16.8977 72.2907 16.8977C74.4971 16.8977 76.4005 17.3712 78.0009 18.3182C79.6108 19.2557 80.8513 20.572 81.7225 22.267C82.5937 23.9527 83.0293 25.9223 83.0293 28.1761C83.0293 30.411 82.5937 32.3759 81.7225 34.071C80.8513 35.7566 79.6108 37.0729 78.0009 38.0199C76.4005 38.9574 74.4971 39.4261 72.2907 39.4261ZM72.3191 34.7386C73.3229 34.7386 74.161 34.4545 74.8333 33.8864C75.5057 33.3087 76.0123 32.5227 76.3532 31.5284C76.7036 30.5341 76.8788 29.4025 76.8788 28.1335C76.8788 26.8646 76.7036 25.733 76.3532 24.7386C76.0123 23.7443 75.5057 22.9583 74.8333 22.3807C74.161 21.803 73.3229 21.5142 72.3191 21.5142C71.3058 21.5142 70.4536 21.803 69.7623 22.3807C69.0805 22.9583 68.5644 23.7443 68.214 24.7386C67.8731 25.733 67.7026 26.8646 67.7026 28.1335C67.7026 29.4025 67.8731 30.5341 68.214 31.5284C68.5644 32.5227 69.0805 33.3087 69.7623 33.8864C70.4536 34.4545 71.3058 34.7386 72.3191 34.7386ZM92.4469 32.7216L92.4611 25.4631H93.3418L100.33 17.1818H107.276L97.8873 28.1477H96.4526L92.4469 32.7216ZM86.964 39V9.90909H93.0151V39H86.964ZM100.6 39L94.1799 29.4972L98.214 25.2216L107.688 39H100.6ZM119.29 39.4261C117.046 39.4261 115.114 38.9716 113.495 38.0625C111.885 37.1439 110.644 35.8466 109.773 34.1705C108.902 32.4848 108.466 30.4915 108.466 28.1903C108.466 25.946 108.902 23.9763 109.773 22.2812C110.644 20.5862 111.87 19.2652 113.452 18.3182C115.043 17.3712 116.908 16.8977 119.049 16.8977C120.488 16.8977 121.828 17.1297 123.068 17.5938C124.318 18.0483 125.407 18.7348 126.335 19.6534C127.273 20.572 128.002 21.7273 128.523 23.1193C129.044 24.5019 129.304 26.1212 129.304 27.9773V29.6392H110.881V25.8892H123.608C123.608 25.018 123.419 24.2462 123.04 23.5739C122.661 22.9015 122.136 22.3759 121.463 21.9972C120.8 21.6089 120.029 21.4148 119.148 21.4148C118.229 21.4148 117.415 21.6278 116.705 22.054C116.004 22.4706 115.455 23.0341 115.057 23.7443C114.659 24.4451 114.456 25.2263 114.446 26.0881V29.6534C114.446 30.733 114.645 31.6657 115.043 32.4517C115.45 33.2377 116.023 33.8438 116.762 34.2699C117.5 34.696 118.376 34.9091 119.389 34.9091C120.062 34.9091 120.677 34.8144 121.236 34.625C121.795 34.4356 122.273 34.1515 122.671 33.7727C123.068 33.3939 123.371 32.9299 123.58 32.3807L129.176 32.75C128.892 34.0947 128.31 35.2689 127.429 36.2727C126.558 37.267 125.431 38.0436 124.049 38.6023C122.675 39.1515 121.089 39.4261 119.29 39.4261ZM139.304 9.90909V39H133.253V9.90909H139.304ZM154.009 39.4261C151.803 39.4261 149.895 38.9574 148.285 38.0199C146.685 37.0729 145.449 35.7566 144.578 34.071C143.706 32.3759 143.271 30.411 143.271 28.1761C143.271 25.9223 143.706 23.9527 144.578 22.267C145.449 20.572 146.685 19.2557 148.285 18.3182C149.895 17.3712 151.803 16.8977 154.009 16.8977C156.216 16.8977 158.119 17.3712 159.72 18.3182C161.33 19.2557 162.57 20.572 163.441 22.267C164.312 23.9527 164.748 25.9223 164.748 28.1761C164.748 30.411 164.312 32.3759 163.441 34.071C162.57 35.7566 161.33 37.0729 159.72 38.0199C158.119 38.9574 156.216 39.4261 154.009 39.4261ZM154.038 34.7386C155.042 34.7386 155.88 34.4545 156.552 33.8864C157.224 33.3087 157.731 32.5227 158.072 31.5284C158.422 30.5341 158.598 29.4025 158.598 28.1335C158.598 26.8646 158.422 25.733 158.072 24.7386C157.731 23.7443 157.224 22.9583 156.552 22.3807C155.88 21.803 155.042 21.5142 154.038 21.5142C153.025 21.5142 152.172 21.803 151.481 22.3807C150.799 22.9583 150.283 23.7443 149.933 24.7386C149.592 25.733 149.421 26.8646 149.421 28.1335C149.421 29.4025 149.592 30.5341 149.933 31.5284C150.283 32.5227 150.799 33.3087 151.481 33.8864C152.172 34.4545 153.025 34.7386 154.038 34.7386Z" fill="#150035"/>
<path d="M172.22 39.3693C171.282 39.3693 170.477 39.0379 169.805 38.375C169.142 37.7027 168.811 36.8977 168.811 35.9602C168.811 35.0322 169.142 34.2367 169.805 33.5739C170.477 32.911 171.282 32.5795 172.22 32.5795C173.129 32.5795 173.924 32.911 174.606 33.5739C175.288 34.2367 175.629 35.0322 175.629 35.9602C175.629 36.5852 175.468 37.1581 175.146 37.679C174.833 38.1903 174.421 38.6023 173.91 38.9148C173.399 39.2178 172.835 39.3693 172.22 39.3693ZM186.818 39.4119C185.426 39.4119 184.186 39.1705 183.097 38.6875C182.008 38.1951 181.146 37.4706 180.512 36.5142C179.887 35.5483 179.574 34.3456 179.574 32.9062C179.574 31.6941 179.797 30.6761 180.242 29.8523C180.687 29.0284 181.293 28.3655 182.06 27.8636C182.827 27.3617 183.698 26.983 184.674 26.7273C185.658 26.4716 186.691 26.2917 187.77 26.1875C189.039 26.0549 190.062 25.9318 190.838 25.8182C191.615 25.6951 192.178 25.5152 192.529 25.2784C192.879 25.0417 193.054 24.6913 193.054 24.2273V24.142C193.054 23.2424 192.77 22.5464 192.202 22.054C191.643 21.5616 190.848 21.3153 189.816 21.3153C188.727 21.3153 187.86 21.5568 187.216 22.0398C186.572 22.5133 186.146 23.1098 185.938 23.8295L180.341 23.375C180.625 22.0492 181.184 20.9034 182.017 19.9375C182.851 18.9621 183.925 18.214 185.242 17.6932C186.567 17.1629 188.102 16.8977 189.844 16.8977C191.056 16.8977 192.216 17.0398 193.324 17.3239C194.442 17.608 195.431 18.0483 196.293 18.6449C197.164 19.2415 197.851 20.0085 198.352 20.946C198.854 21.8741 199.105 22.9867 199.105 24.2841V39H193.367V35.9744H193.196C192.846 36.6562 192.377 37.2576 191.79 37.7784C191.203 38.2898 190.497 38.6922 189.674 38.9858C188.85 39.2699 187.898 39.4119 186.818 39.4119ZM188.551 35.2358C189.442 35.2358 190.227 35.0606 190.909 34.7102C191.591 34.3504 192.126 33.8674 192.514 33.2614C192.903 32.6553 193.097 31.9687 193.097 31.2017V28.8864C192.907 29.0095 192.647 29.1231 192.316 29.2273C191.994 29.322 191.629 29.4119 191.222 29.4972C190.815 29.5729 190.407 29.6439 190 29.7102C189.593 29.767 189.224 29.8191 188.892 29.8665C188.182 29.9706 187.562 30.1364 187.031 30.3636C186.501 30.5909 186.089 30.8987 185.796 31.2869C185.502 31.6657 185.355 32.1392 185.355 32.7074C185.355 33.5312 185.654 34.161 186.25 34.5966C186.856 35.0227 187.623 35.2358 188.551 35.2358ZM203.8 39V17.1818H209.851V39H203.8ZM206.84 14.3693C205.94 14.3693 205.168 14.071 204.524 13.4744C203.89 12.8684 203.573 12.1439 203.573 11.3011C203.573 10.4678 203.89 9.75284 204.524 9.15625C205.168 8.55019 205.94 8.24716 206.84 8.24716C207.739 8.24716 208.506 8.55019 209.141 9.15625C209.785 9.75284 210.107 10.4678 210.107 11.3011C210.107 12.1439 209.785 12.8684 209.141 13.4744C208.506 14.071 207.739 14.3693 206.84 14.3693Z" fill="#583BE8"/>
<rect x="225" y="18" width="64.8" height="24" rx="8" fill="#6A67EF"/>
<path d="M237.57 37.625V23.0795H242.655C243.668 23.0795 244.504 23.2547 245.162 23.6051C245.82 23.9508 246.31 24.4171 246.632 25.0043C246.954 25.5866 247.115 26.233 247.115 26.9432C247.115 27.5682 247.004 28.0843 246.781 28.4915C246.563 28.8987 246.275 29.2206 245.915 29.4574C245.56 29.6941 245.174 29.8693 244.757 29.983V30.125C245.202 30.1534 245.65 30.3097 246.099 30.5938C246.549 30.8778 246.926 31.285 247.229 31.8153C247.532 32.3456 247.683 32.9943 247.683 33.7614C247.683 34.4905 247.517 35.1463 247.186 35.7287C246.855 36.3111 246.331 36.7727 245.616 37.1136C244.901 37.4545 243.971 37.625 242.825 37.625H237.57ZM239.331 36.0625H242.825C243.976 36.0625 244.793 35.84 245.276 35.3949C245.763 34.9451 246.007 34.4006 246.007 33.7614C246.007 33.2689 245.882 32.8144 245.631 32.3977C245.38 31.9763 245.022 31.6402 244.558 31.3892C244.094 31.1335 243.545 31.0057 242.91 31.0057H239.331V36.0625ZM239.331 29.4716H242.598C243.128 29.4716 243.607 29.3674 244.033 29.1591C244.464 28.9508 244.804 28.6572 245.055 28.2784C245.311 27.8996 245.439 27.4545 245.439 26.9432C245.439 26.304 245.216 25.7618 244.771 25.3168C244.326 24.867 243.621 24.642 242.655 24.642H239.331V29.4716ZM254.924 37.8523C253.873 37.8523 252.966 37.6203 252.204 37.1562C251.446 36.6875 250.861 36.0341 250.45 35.196C250.042 34.3532 249.839 33.3731 249.839 32.2557C249.839 31.1383 250.042 30.1534 250.45 29.3011C250.861 28.4441 251.434 27.7765 252.168 27.2983C252.907 26.8153 253.769 26.5739 254.754 26.5739C255.322 26.5739 255.883 26.6686 256.437 26.858C256.991 27.0473 257.495 27.3551 257.95 27.7812C258.404 28.2027 258.766 28.7614 259.036 29.4574C259.306 30.1534 259.441 31.0104 259.441 32.0284V32.7386H251.032V31.2898H257.736C257.736 30.6742 257.613 30.125 257.367 29.642C257.126 29.1591 256.78 28.7779 256.33 28.4986C255.885 28.2192 255.36 28.0795 254.754 28.0795C254.086 28.0795 253.508 28.2453 253.021 28.5767C252.538 28.9034 252.166 29.3295 251.906 29.8551C251.645 30.3807 251.515 30.9441 251.515 31.5455V32.5114C251.515 33.3352 251.657 34.0336 251.941 34.6065C252.23 35.1747 252.63 35.608 253.141 35.9062C253.653 36.1998 254.247 36.3466 254.924 36.3466C255.364 36.3466 255.762 36.285 256.117 36.1619C256.477 36.0341 256.787 35.8447 257.048 35.5938C257.308 35.3381 257.509 35.0208 257.651 34.642L259.271 35.0966C259.1 35.6458 258.814 36.1288 258.411 36.5455C258.009 36.9574 257.512 37.2794 256.92 37.5114C256.328 37.7386 255.663 37.8523 254.924 37.8523ZM266.735 26.7159V28.1364H261.082V26.7159H266.735ZM262.729 24.1023H264.406V34.5C264.406 34.9735 264.474 35.3286 264.611 35.5653C264.754 35.7973 264.933 35.9536 265.151 36.0341C265.374 36.1098 265.608 36.1477 265.854 36.1477C266.039 36.1477 266.191 36.1383 266.309 36.1193C266.427 36.0956 266.522 36.0767 266.593 36.0625L266.934 37.5682C266.82 37.6108 266.662 37.6534 266.458 37.696C266.254 37.7434 265.996 37.767 265.684 37.767C265.21 37.767 264.746 37.6652 264.292 37.4616C263.842 37.258 263.468 36.9479 263.17 36.5312C262.876 36.1146 262.729 35.589 262.729 34.9545V24.1023ZM272.467 37.8807C271.775 37.8807 271.148 37.7505 270.584 37.4901C270.021 37.2249 269.574 36.8438 269.242 36.3466C268.911 35.8447 268.745 35.2386 268.745 34.5284C268.745 33.9034 268.868 33.3968 269.114 33.0085C269.361 32.6155 269.69 32.3078 270.102 32.0852C270.513 31.8627 270.968 31.697 271.465 31.5881C271.967 31.4744 272.471 31.3845 272.978 31.3182C273.641 31.233 274.178 31.169 274.59 31.1264C275.007 31.0791 275.31 31.0009 275.499 30.892C275.693 30.7831 275.79 30.5937 275.79 30.3239V30.267C275.79 29.5663 275.599 29.0218 275.215 28.6335C274.836 28.2453 274.261 28.0511 273.489 28.0511C272.689 28.0511 272.062 28.2263 271.607 28.5767C271.153 28.9271 270.833 29.3011 270.648 29.6989L269.057 29.1307C269.342 28.4678 269.72 27.9517 270.194 27.5824C270.672 27.2083 271.193 26.9479 271.756 26.8011C272.325 26.6496 272.883 26.5739 273.432 26.5739C273.783 26.5739 274.185 26.6165 274.64 26.7017C275.099 26.7822 275.542 26.9503 275.968 27.206C276.399 27.4616 276.756 27.8475 277.04 28.3636C277.325 28.8797 277.467 29.571 277.467 30.4375V37.625H275.79V36.1477H275.705C275.592 36.3845 275.402 36.6378 275.137 36.9077C274.872 37.1776 274.519 37.4072 274.079 37.5966C273.638 37.786 273.101 37.8807 272.467 37.8807ZM272.722 36.375C273.385 36.375 273.944 36.2448 274.398 35.9844C274.858 35.724 275.203 35.3878 275.435 34.9759C275.672 34.5639 275.79 34.1307 275.79 33.6761V32.142C275.719 32.2273 275.563 32.3054 275.322 32.3764C275.085 32.4427 274.81 32.5019 274.498 32.554C274.19 32.6013 273.889 32.6439 273.596 32.6818C273.307 32.715 273.073 32.7434 272.893 32.767C272.457 32.8239 272.05 32.9162 271.671 33.044C271.297 33.1671 270.994 33.3542 270.762 33.6051C270.535 33.8513 270.421 34.1875 270.421 34.6136C270.421 35.196 270.637 35.6364 271.067 35.9347C271.503 36.2282 272.055 36.375 272.722 36.375Z" fill="white"/>
</svg>
